<svg width="1485" height="228" fill="none" xmlns="http://www.w3.org/2000/svg"><mask id="a" style="mask-type:alpha" maskUnits="userSpaceOnUse" x="0" y="0" width="1485" height="228"><path fill="#fff" d="M0 0h1485v228H0z"/></mask><g mask="url(#a)" stroke="#F8F6F2" stroke-width="122"><path d="M-193 151.199C-128.132 97.805 43.712 28.797 6.156 77.657-43.315 142.02-116 166-38.5 164.5L86.957 97.805c32.244-16.286 92.409-41.707 75.111-13.096-21.623 35.764-91.044 79.587-45.522 79.587 36.417 0 56.143-8.731 61.454-13.097M178 151.199c64.868-53.394 236.712-122.402 199.156-73.542-49.471 64.364-121.769 99.735-43.245 86.639l124.046-66.49c32.244-16.287 92.409-41.708 75.11-13.097-21.622 35.764-91.042 79.587-45.521 79.587 36.417 0 56.143-8.731 61.454-13.097M549 151.199c64.868-53.394 236.712-122.402 199.156-73.542-49.471 64.364-121.769 99.735-43.245 86.639l124.046-66.49c32.244-16.287 92.409-41.708 75.11-13.097-21.622 35.764-91.042 79.587-45.521 79.587 36.417 0 56.143-8.731 61.454-13.097M920 151.199c64.868-53.394 236.71-122.402 199.16-73.542-49.48 64.364-121.773 99.735-43.25 86.639l124.05-66.49c32.24-16.287 92.41-41.708 75.11-13.097-21.63 35.764-91.05 79.587-45.52 79.587 36.41 0 56.14-8.731 61.45-13.097M1291 151.199c64.87-53.394 236.71-122.402 199.16-73.542-49.48 64.364-121.77 99.735-43.25 86.639l124.05-66.49c32.24-16.287 92.41-41.708 75.11-13.097-21.63 35.764-91.05 79.587-45.52 79.587 36.41 0 56.14-8.731 61.45-13.097"/></g></svg>