<svg width="37" height="23" viewBox="0 0 37 23" fill="none" xmlns="http://www.w3.org/2000/svg">
<path d="M4.3946 21.9327L18.3379 6.96325L32.3759 22.0346C32.5964 22.2732 32.8586 22.4626 33.1476 22.5918C33.4366 22.7211 33.7465 22.7876 34.0595 22.7876C34.3726 22.7876 34.6825 22.7211 34.9715 22.5918C35.2604 22.4626 35.5227 22.2732 35.7432 22.0346C35.9654 21.7979 36.1418 21.5163 36.2622 21.2061C36.3826 20.8958 36.4446 20.5631 36.4446 20.227C36.4446 19.8909 36.3826 19.5582 36.2622 19.248C36.1418 18.9377 35.9654 18.6561 35.7432 18.4195L20.0215 1.54066C19.8011 1.30204 19.5388 1.11265 19.2498 0.983393C18.9609 0.854167 18.6509 0.787598 18.3379 0.787598C18.0248 0.787598 17.7149 0.854167 17.4259 0.983393C17.137 1.11265 16.8747 1.30204 16.6543 1.54066L15.0892 3.34821L1.14596 18.3177C0.92379 18.5543 0.747286 18.8359 0.626943 19.1461C0.5066 19.4564 0.44458 19.7891 0.44458 20.1252C0.44458 20.4613 0.5066 20.794 0.626943 21.1042C0.747286 21.4145 0.92379 21.696 1.14596 21.9327C1.58568 22.3766 2.16671 22.6238 2.77028 22.6238C3.37384 22.6238 3.95489 22.3766 4.3946 21.9327Z" fill="currentColor"/>
</svg>
