<svg width="35" height="35" viewBox="0 0 35 35" fill="none" xmlns="http://www.w3.org/2000/svg">
<g opacity="0.5">
<path d="M14.5834 19.323C14.2933 19.323 14.0151 19.4382 13.81 19.6434C13.6049 19.8485 13.4896 20.1267 13.4896 20.4167C13.4896 20.7068 13.6049 20.985 13.81 21.1901C14.0151 21.3953 14.2933 21.5105 14.5834 21.5105H20.4167C20.7068 21.5105 20.985 21.3953 21.1901 21.1901C21.3952 20.985 21.5105 20.7068 21.5105 20.4167C21.5105 20.1267 21.3952 19.8485 21.1901 19.6434C20.985 19.4382 20.7068 19.323 20.4167 19.323H14.5834Z" fill="currentColor"/>
<path fill-rule="evenodd" clip-rule="evenodd" d="M21.3864 3.39793C21.6458 3.26826 21.946 3.24689 22.2211 3.3385C22.4962 3.43011 22.7237 3.62721 22.8535 3.88647L25.4975 9.17439C26.1217 9.20647 26.6889 9.25459 27.2037 9.32897C28.7437 9.54918 30.0183 10.0246 30.9239 11.1446C31.8296 12.2661 32.0279 13.6106 31.9214 15.1623C31.8194 16.6658 31.411 18.5631 30.9035 20.9329L30.2458 24.0056C29.9031 25.6054 29.6246 26.9019 29.2746 27.914C28.91 28.9713 28.4287 29.839 27.6092 30.5025C26.7896 31.1661 25.8387 31.4533 24.7304 31.589C23.6658 31.7188 22.3387 31.7188 20.7054 31.7188H14.2946C12.6583 31.7188 11.3327 31.7188 10.2681 31.589C9.15978 31.4533 8.20895 31.1661 7.38936 30.5025C6.56832 29.839 6.08853 28.9713 5.72395 27.9154C5.37395 26.9019 5.09686 25.6054 4.7527 24.0071L4.09499 20.9344C3.58749 18.5631 3.18061 16.6658 3.07707 15.1623C2.97061 13.6106 3.16895 12.2661 4.07457 11.1446C4.97874 10.0246 6.25332 9.54918 7.79332 9.32897C8.30811 9.25605 8.87686 9.20647 9.49957 9.17439L12.1479 3.88647C12.2788 3.62926 12.5061 3.43423 12.7802 3.34386C13.0543 3.2535 13.353 3.27513 13.6112 3.40405C13.8694 3.53296 14.0662 3.75871 14.1587 4.0321C14.2512 4.30548 14.2319 4.60434 14.105 4.86355L11.9758 9.11751C12.5067 9.11459 13.0652 9.11459 13.6514 9.11459H21.3485C21.9348 9.11459 22.4933 9.11459 23.0242 9.11751L20.8964 4.86355C20.7668 4.6042 20.7454 4.30398 20.837 4.02888C20.9286 3.75377 21.1257 3.5263 21.385 3.39647L21.3864 3.39793ZM8.35916 11.4596L7.77145 12.635C7.70597 12.7637 7.6666 12.904 7.65561 13.0479C7.64463 13.1918 7.66224 13.3365 7.70744 13.4736C7.75263 13.6107 7.82452 13.7375 7.91895 13.8467C8.01338 13.9558 8.12849 14.0453 8.25763 14.1097C8.38678 14.1742 8.52742 14.2125 8.67143 14.2224C8.81544 14.2322 8.95998 14.2135 9.09671 14.1672C9.23345 14.121 9.35968 14.0481 9.46811 13.9528C9.57655 13.8575 9.66506 13.7417 9.72853 13.6121L10.8762 11.3167C11.7075 11.3021 12.6554 11.3006 13.7404 11.3006H21.2596C22.3446 11.3006 23.2925 11.3006 24.1237 11.3152L25.2714 13.6121C25.4024 13.8693 25.6296 14.0643 25.9037 14.1547C26.1778 14.2451 26.4765 14.2234 26.7347 14.0945C26.993 13.9656 27.1898 13.7399 27.2823 13.4665C27.3747 13.1931 27.3554 12.8942 27.2285 12.635L26.6408 11.4596L26.8946 11.4931C28.1837 11.6783 28.8152 12.0152 29.2235 12.5183C29.6246 13.0142 29.8214 13.6894 29.7427 14.9465H5.25728C5.17853 13.6894 5.37541 13.0142 5.77645 12.5183C6.18478 12.0152 6.81624 11.6783 8.10541 11.4931L8.35916 11.4596ZM6.25332 20.5625C6.00262 19.4237 5.76878 18.2812 5.55186 17.1354H29.4481C29.2304 18.2811 28.996 19.4236 28.7452 20.5625L28.121 23.4792C27.7594 25.1636 27.5085 26.3288 27.2067 27.2008C26.915 28.0467 26.6175 28.4929 26.2339 28.8021C25.8519 29.1113 25.3517 29.3096 24.4664 29.4175C23.5492 29.5298 22.3562 29.5313 20.6339 29.5313H14.3646C12.6437 29.5313 11.4508 29.5298 10.5335 29.4175C9.64686 29.3096 9.14811 29.1113 8.76603 28.8021C8.38249 28.4929 8.08353 28.0452 7.79332 27.2008C7.49145 26.3288 7.23916 25.1636 6.87895 23.4792L6.25332 20.5625Z" fill="currentColor"/>
</g>
</svg>
