<svg width="156" height="156" viewBox="0 0 156 156" fill="none" xmlns="http://www.w3.org/2000/svg">
<path d="M84.6818 13.0065C89.4251 12.9883 94.1684 13.036 98.9103 13.1495L100.171 13.195C101.627 13.247 103.064 13.312 104.799 13.39C111.715 13.715 116.434 14.807 120.575 16.4125C124.865 18.0635 128.479 20.2995 132.093 23.9135C135.397 27.161 137.955 31.0892 139.587 35.425C141.193 39.5655 142.285 44.291 142.61 51.207C142.688 52.936 142.753 54.379 142.805 55.835L142.844 57.096C142.959 61.8358 143.009 66.5769 142.993 71.318L143 76.167V84.682C143.016 89.4253 142.966 94.1686 142.85 98.9105L142.811 100.172C142.759 101.628 142.694 103.064 142.616 104.8C142.291 111.716 141.186 116.435 139.587 120.575C137.96 124.915 135.402 128.847 132.093 132.093C128.843 135.397 124.912 137.954 120.575 139.588C116.434 141.193 111.715 142.285 104.799 142.61C103.064 142.688 101.627 142.753 100.171 142.805L98.9103 142.844C94.1684 142.96 89.4251 143.009 84.6818 142.994L79.8328 143H71.3243C66.581 143.016 61.8378 142.966 57.0958 142.851L55.8348 142.812C54.2918 142.756 52.7491 142.691 51.2068 142.617C44.2908 142.292 39.5718 141.187 35.4248 139.588C31.0873 137.958 27.1584 135.4 23.9133 132.093C20.6051 128.845 18.0453 124.914 16.4123 120.575C14.8068 116.435 13.7148 111.716 13.3898 104.8C13.3175 103.257 13.2525 101.715 13.1948 100.172L13.1623 98.9105C13.0425 94.1687 12.9883 89.4254 12.9998 84.682V71.318C12.9817 66.5769 13.0294 61.8358 13.1428 57.096L13.1883 55.835C13.2403 54.379 13.3053 52.936 13.3833 51.207C13.7083 44.2845 14.8003 39.572 16.4058 35.425C18.0398 31.0871 20.6046 27.1599 23.9198 23.92C27.1627 20.6099 31.0891 18.0478 35.4248 16.4125C39.5718 14.807 44.2843 13.715 51.2068 13.39L55.8348 13.195L57.0958 13.1625C61.8355 13.0428 66.5767 12.9886 71.3178 13L84.6818 13.0065ZM77.9998 45.5065C73.6936 45.4456 69.4183 46.2412 65.4222 47.847C61.4261 49.4528 57.7891 51.8367 54.7223 54.8604C51.6556 57.884 49.2204 61.487 47.5583 65.46C45.8962 69.433 45.0402 73.6966 45.0402 78.0033C45.0402 82.3099 45.8962 86.5736 47.5583 90.5466C49.2204 94.5195 51.6556 98.1225 54.7223 101.146C57.7891 104.17 61.4261 106.554 65.4222 108.16C69.4183 109.765 73.6936 110.561 77.9998 110.5C86.6194 110.5 94.8859 107.076 100.981 100.981C107.076 94.8861 110.5 86.6196 110.5 78C110.5 69.3805 107.076 61.114 100.981 55.0191C94.8859 48.9241 86.6194 45.5065 77.9998 45.5065ZM77.9998 58.5065C80.5901 58.4588 83.164 58.9277 85.571 59.8859C87.9781 60.844 90.17 62.2723 92.0189 64.0871C93.8678 65.9019 95.3365 68.0669 96.3392 70.4558C97.342 72.8446 97.8587 75.4092 97.8591 78C97.8595 80.5907 97.3437 83.1556 96.3418 85.5447C95.3398 87.9338 93.8718 90.0994 92.0236 91.9148C90.1753 93.7303 87.9838 95.1592 85.5771 96.1182C83.1703 97.0771 80.5967 97.5469 78.0064 97.5C72.8346 97.5 67.8747 95.4456 64.2178 91.7886C60.5608 88.1317 58.5064 83.1718 58.5064 78C58.5064 72.8283 60.5608 67.8684 64.2178 64.2114C67.8747 60.5545 72.8346 58.5 78.0064 58.5L77.9998 58.5065ZM112.125 35.7565C110.028 35.8405 108.045 36.7325 106.591 38.2458C105.137 39.7592 104.325 41.7764 104.325 43.875C104.325 45.9737 105.137 47.9909 106.591 49.5042C108.045 51.0176 110.028 51.9096 112.125 51.9935C114.28 51.9935 116.346 51.1375 117.87 49.6138C119.394 48.09 120.25 46.0234 120.25 43.8685C120.25 41.7136 119.394 39.647 117.87 38.1233C116.346 36.5996 114.28 35.7435 112.125 35.7435V35.7565Z" fill="white" fill-opacity="0.5"/>
</svg>
