<svg width="166" height="36" viewBox="0 0 166 36" fill="none" xmlns="http://www.w3.org/2000/svg">
<path d="M61.456 11.3361V21.2361H68.728V23.0001H59.404V11.3361H61.456ZM80.042 23.0001H78.044V14.0361H80.042V23.0001ZM78.152 18.7341L78.17 19.3101C78.146 19.4661 78.092 19.7001 78.008 20.0121C77.936 20.3241 77.81 20.6661 77.63 21.0381C77.462 21.3981 77.234 21.7461 76.946 22.0821C76.67 22.4061 76.322 22.6761 75.902 22.8921C75.482 23.0961 74.972 23.1981 74.372 23.1981C73.94 23.1981 73.502 23.1381 73.058 23.0181C72.626 22.9101 72.23 22.7241 71.87 22.4601C71.522 22.1961 71.24 21.8361 71.024 21.3801C70.808 20.9241 70.7 20.3481 70.7 19.6521V14.0361H72.698V19.2741C72.698 19.8381 72.788 20.2821 72.968 20.6061C73.16 20.9181 73.424 21.1401 73.76 21.2721C74.096 21.4041 74.486 21.4701 74.93 21.4701C75.566 21.4701 76.106 21.3261 76.55 21.0381C76.994 20.7501 77.348 20.3961 77.612 19.9761C77.888 19.5441 78.068 19.1301 78.152 18.7341ZM91.8968 19.5261C91.8248 20.2941 91.5788 20.9541 91.1588 21.5061C90.7388 22.0581 90.1748 22.4781 89.4668 22.7661C88.7708 23.0541 87.9668 23.1981 87.0548 23.1981C86.0708 23.1981 85.1768 23.0181 84.3728 22.6581C83.5808 22.2981 82.9508 21.7701 82.4828 21.0741C82.0148 20.3781 81.7808 19.5321 81.7808 18.5361C81.7808 17.5401 82.0148 16.6941 82.4828 15.9981C82.9508 15.3021 83.5808 14.7681 84.3728 14.3961C85.1768 14.0241 86.0708 13.8381 87.0548 13.8381C87.9668 13.8381 88.7708 13.9881 89.4668 14.2881C90.1628 14.5761 90.7208 14.9901 91.1408 15.5301C91.5608 16.0701 91.8068 16.7241 91.8788 17.4921H90.0428C89.8388 16.8561 89.4668 16.3641 88.9268 16.0161C88.3988 15.6561 87.7748 15.4761 87.0548 15.4761C86.4668 15.4761 85.9268 15.5961 85.4348 15.8361C84.9428 16.0641 84.5468 16.4061 84.2468 16.8621C83.9588 17.3061 83.8148 17.8641 83.8148 18.5361C83.8148 19.1961 83.9588 19.7541 84.2468 20.2101C84.5468 20.6661 84.9428 21.0081 85.4348 21.2361C85.9268 21.4521 86.4668 21.5601 87.0548 21.5601C87.8468 21.5601 88.4948 21.3861 88.9988 21.0381C89.5148 20.6781 89.8688 20.1741 90.0608 19.5261H91.8968ZM93.837 10.4361H95.835V23.0001H93.837V10.4361ZM102.819 14.0361L97.797 18.6441L97.851 17.3841L103.197 23.0001H100.641L95.889 17.9781L100.047 14.0361H102.819ZM103.658 14.0361H105.8L109.418 22.6401L107.69 23.0001L103.658 14.0361ZM113.648 14.0361L107.888 26.6001H105.782L108.248 21.6861L111.506 14.0361H113.648ZM119.521 23.0001V11.3361H125.461C126.889 11.3361 127.981 11.6061 128.737 12.1461C129.505 12.6741 129.889 13.4421 129.889 14.4501C129.889 15.0981 129.739 15.6141 129.439 15.9981C129.151 16.3701 128.737 16.6521 128.197 16.8441C127.657 17.0241 127.021 17.1381 126.289 17.1861L126.361 17.0781C126.889 17.0901 127.387 17.1381 127.855 17.2221C128.335 17.2941 128.755 17.4261 129.115 17.6181C129.487 17.8101 129.775 18.0801 129.979 18.4281C130.195 18.7641 130.303 19.2021 130.303 19.7421C130.303 20.4621 130.123 21.0561 129.763 21.5241C129.403 21.9921 128.905 22.3521 128.269 22.6041C127.633 22.8441 126.901 22.9761 126.073 23.0001H119.521ZM121.573 21.2541H125.767C126.547 21.2541 127.153 21.1221 127.585 20.8581C128.017 20.5821 128.233 20.1561 128.233 19.5801C128.233 19.1241 128.101 18.7941 127.837 18.5901C127.573 18.3741 127.231 18.2361 126.811 18.1761C126.403 18.1161 125.965 18.0861 125.497 18.0861H121.573V21.2541ZM121.573 16.3761H125.335C126.115 16.3761 126.715 16.2441 127.135 15.9801C127.567 15.7041 127.783 15.2721 127.783 14.6841C127.783 14.1081 127.567 13.7001 127.135 13.4601C126.715 13.2081 126.163 13.0821 125.479 13.0821H121.573V16.3761ZM136.167 23.1981C135.351 23.1981 134.601 23.0001 133.917 22.6041C133.245 22.2081 132.705 21.6621 132.297 20.9661C131.901 20.2581 131.703 19.4481 131.703 18.5361C131.703 17.6001 131.907 16.7841 132.315 16.0881C132.723 15.3801 133.275 14.8281 133.971 14.4321C134.667 14.0361 135.447 13.8381 136.311 13.8381C137.271 13.8381 138.033 14.0481 138.597 14.4681C139.161 14.8881 139.563 15.4521 139.803 16.1601C140.043 16.8681 140.163 17.6601 140.163 18.5361C140.163 19.0281 140.091 19.5501 139.947 20.1021C139.803 20.6421 139.575 21.1461 139.263 21.6141C138.963 22.0821 138.555 22.4661 138.039 22.7661C137.535 23.0541 136.911 23.1981 136.167 23.1981ZM136.779 21.5421C137.451 21.5421 138.021 21.4161 138.489 21.1641C138.969 20.9001 139.329 20.5401 139.569 20.0841C139.821 19.6281 139.947 19.1121 139.947 18.5361C139.947 17.9001 139.821 17.3601 139.569 16.9161C139.317 16.4601 138.957 16.1121 138.489 15.8721C138.021 15.6201 137.451 15.4941 136.779 15.4941C135.819 15.4941 135.075 15.7761 134.547 16.3401C134.019 16.9041 133.755 17.6361 133.755 18.5361C133.755 19.1241 133.881 19.6461 134.133 20.1021C134.397 20.5581 134.757 20.9121 135.213 21.1641C135.669 21.4161 136.191 21.5421 136.779 21.5421ZM139.947 14.0361H141.963V23.0001H140.091C140.091 23.0001 140.079 22.8861 140.055 22.6581C140.031 22.4301 140.007 22.1541 139.983 21.8301C139.959 21.4941 139.947 21.1761 139.947 20.8761V14.0361ZM150.085 23.1981C149.341 23.1981 148.711 23.0541 148.195 22.7661C147.691 22.4661 147.283 22.0821 146.971 21.6141C146.671 21.1461 146.449 20.6421 146.305 20.1021C146.173 19.5501 146.107 19.0281 146.107 18.5361C146.107 17.8761 146.173 17.2641 146.305 16.7001C146.437 16.1361 146.653 15.6441 146.953 15.2241C147.265 14.7921 147.673 14.4561 148.177 14.2161C148.693 13.9641 149.329 13.8381 150.085 13.8381C150.949 13.8381 151.711 14.0361 152.371 14.4321C153.043 14.8281 153.571 15.3801 153.955 16.0881C154.351 16.7841 154.549 17.6001 154.549 18.5361C154.549 19.4481 154.351 20.2581 153.955 20.9661C153.559 21.6621 153.025 22.2081 152.353 22.6041C151.681 23.0001 150.925 23.1981 150.085 23.1981ZM149.473 21.5421C150.085 21.5421 150.613 21.4161 151.057 21.1641C151.513 20.9121 151.867 20.5581 152.119 20.1021C152.371 19.6461 152.497 19.1241 152.497 18.5361C152.497 17.6361 152.233 16.9041 151.705 16.3401C151.177 15.7641 150.433 15.4761 149.473 15.4761C148.813 15.4761 148.243 15.6021 147.763 15.8541C147.295 16.1061 146.935 16.4601 146.683 16.9161C146.443 17.3601 146.323 17.9001 146.323 18.5361C146.323 19.1121 146.443 19.6281 146.683 20.0841C146.935 20.5401 147.295 20.9001 147.763 21.1641C148.231 21.4161 148.801 21.5421 149.473 21.5421ZM146.323 10.4361V20.8761C146.323 21.2001 146.305 21.5661 146.269 21.9741C146.233 22.3821 146.197 22.7241 146.161 23.0001H144.307V10.4361H146.323ZM155.179 14.0361H157.321L160.939 22.6401L159.211 23.0001L155.179 14.0361ZM165.169 14.0361L159.409 26.6001H157.303L159.769 21.6861L163.027 14.0361H165.169Z" fill="#3C3C3C"/>
<path d="M39.9943 21.1265C40.6348 19.2173 38.8992 19.0437 39.0224 17.4418C39.1248 16.0967 40.8951 16.7007 41.5789 16.8326" stroke="#010101" stroke-width="0.452102" stroke-miterlimit="10"/>
<path d="M37.4589 6.02672C35.3415 4.03078 32.9984 2.72908 31.6099 3.77044C30.2215 4.8118 30.9157 6.37384 32.8249 6.37384C34.734 6.37384 36.7299 5.07214 36.5564 3.85722C36.3151 2.16501 33.2084 -0.339458 27.2709 0.472802C24.3569 0.871989 19.6499 2.80892 18.0723 4.29112" stroke="#010101" stroke-width="0.452102" stroke-miterlimit="10"/>
<path d="M29.4525 8.43398C24.8515 2.54857 15.061 2.51559 7.584 8.36109C0.10704 14.2066 -2.2256 23.7159 2.3772 29.6013C6.98001 35.4868 16.7688 35.518 24.2457 29.6742C31.7227 23.8305 34.0536 14.3177 29.4525 8.43398ZM13.886 17.6708C11.8362 19.2728 9.15125 19.2641 7.88946 17.65C6.62768 16.0359 7.26812 13.436 9.31786 11.8323C11.3676 10.2286 14.0526 10.239 15.3144 11.8531C16.5761 13.4672 15.9357 16.0723 13.886 17.6708Z" fill="#DEA9BA"/>
<path d="M15.8404 12.9067C16.0817 14.0522 15.8508 15.6125 14.8164 16.4195C14.4826 16.7004 14.0957 16.911 13.6786 17.0389C13.2616 17.1668 12.8231 17.2093 12.3892 17.1639C11.9554 17.1186 11.5352 16.9862 11.1537 16.7747C10.7721 16.5633 10.4372 16.2771 10.1687 15.9333C9.9003 15.5894 9.70393 15.195 9.59136 14.7736C9.47878 14.3522 9.45231 13.9124 9.51353 13.4805C9.57474 13.0486 9.72239 12.6335 9.94764 12.26C10.1729 11.8864 10.4711 11.5621 10.8245 11.3065C11.4845 10.8007 12.3159 10.5727 13.1416 10.6712C11.9266 10.5133 10.5173 10.9003 9.32324 11.8323C7.2683 13.436 6.6296 16.0429 7.88964 17.6553C9.14968 19.2677 11.8364 19.2781 13.8861 17.6761C15.5315 16.3883 16.2674 14.4548 15.8404 12.9067Z" fill="#B98E9C"/>
<path d="M37.0265 18.1429C31.5472 14.0816 24.7489 13.967 21.8435 17.886C18.9381 21.805 21.0243 28.2788 26.5036 32.3401C31.9829 36.4014 38.7812 36.5176 41.6883 32.5969C44.5954 28.6762 42.5075 22.2059 37.0265 18.1429ZM36.7453 24.1428C35.973 25.1842 34.1645 25.1547 32.7066 24.0751C31.2487 22.9956 30.6933 21.2721 31.4656 20.2291C32.238 19.186 34.0482 19.2172 35.5061 20.2985C36.964 21.3798 37.5194 23.0997 36.7453 24.1428Z" fill="#F0D663"/>
<path d="M33.9183 23.7454C32.6478 22.8029 32.0664 21.1281 33.0297 19.9427C33.1756 19.7712 33.3417 19.618 33.5243 19.4862C32.6739 19.3925 31.905 19.6389 31.4659 20.2291C30.6936 21.2704 31.2489 22.9939 32.7069 24.0751C34.1648 25.1564 35.9732 25.1859 36.7456 24.1428C36.7213 24.1827 36.7734 24.1046 36.7456 24.1428C35.7181 24.7 34.7809 24.3841 33.9183 23.7454Z" fill="#CDB856"/>
<path d="M13.8201 10.4525C12.6052 14.0972 14.9483 15.5725 17.5516 15.746C20.155 15.9196 21.4567 14.2708 24.2337 14.965C27.4862 15.7773 28.1388 19.2172 30.2215 21.1264C32.3042 23.0355 35.7945 22.4194 37.0771 22.2545" stroke="#010101" stroke-width="0.452102" stroke-miterlimit="10"/>
<path d="M14.4122 10.2837L13.2432 9.95306L13.0543 10.6211L14.2233 10.9517L14.4122 10.2837Z" fill="#DEA9BA"/>
<path d="M36.8462 21.93C36.8462 19.8473 37.9448 21.5829 37.9448 22.081C37.9448 22.6017 37.1707 22.5896 37.0527 22.5896C37.0039 22.3639 36.9348 22.1432 36.8462 21.93Z" fill="#F0D663"/>
</svg>
