<svg width="1485" height="228" viewBox="0 0 1485 228" fill="none" xmlns="http://www.w3.org/2000/svg">
<mask id="mask0_1556_92" style="mask-type:alpha" maskUnits="userSpaceOnUse" x="0" y="0" width="1485" height="228">
<rect width="1485" height="228" fill="white"/>
</mask>
<g mask="url(#mask0_1556_92)">
<path d="M-193 151.199C-128.132 97.8053 43.7117 28.7967 6.15645 77.6569C-43.3151 142.021 -116 166 -38.5 164.5L86.9571 97.8055C119.201 81.5187 179.366 56.0979 162.068 84.7089C140.445 120.473 71.0245 164.296 116.546 164.296C152.963 164.296 172.689 155.565 178 151.199" stroke="#F8F6F2" stroke-width="122"/>
<path d="M178 151.199C242.868 97.8053 414.712 28.7967 377.156 77.6569C327.685 142.021 255.387 177.392 333.911 164.296L457.957 97.8055C490.201 81.5187 550.366 56.0979 533.067 84.7089C511.445 120.473 442.025 164.296 487.546 164.296C523.963 164.296 543.689 155.565 549 151.199" stroke="#F8F6F2" stroke-width="122"/>
<path d="M549 151.199C613.868 97.8053 785.712 28.7967 748.156 77.6569C698.685 142.021 626.387 177.392 704.911 164.296L828.957 97.8055C861.201 81.5187 921.366 56.0979 904.067 84.7089C882.445 120.473 813.025 164.296 858.546 164.296C894.963 164.296 914.689 155.565 920 151.199" stroke="#F8F6F2" stroke-width="122"/>
<path d="M920 151.199C984.868 97.8053 1156.71 28.7967 1119.16 77.6569C1069.68 142.021 997.387 177.392 1075.91 164.296L1199.96 97.8055C1232.2 81.5187 1292.37 56.0979 1275.07 84.7089C1253.44 120.473 1184.02 164.296 1229.55 164.296C1265.96 164.296 1285.69 155.565 1291 151.199" stroke="#F8F6F2" stroke-width="122"/>
<path d="M1291 151.199C1355.87 97.8053 1527.71 28.7967 1490.16 77.6569C1440.68 142.021 1368.39 177.392 1446.91 164.296L1570.96 97.8055C1603.2 81.5187 1663.37 56.0979 1646.07 84.7089C1624.44 120.473 1555.02 164.296 1600.55 164.296C1636.96 164.296 1656.69 155.565 1662 151.199" stroke="#F8F6F2" stroke-width="122"/>
</g>
</svg>
