<svg width="24" height="24" viewBox="0 0 24 24" xmlns="http://www.w3.org/2000/svg">
<path d="M12.0024 0.571533H11.997C6.01065 0.571533 1.14258 5.44096 1.14258 11.4287C1.14258 13.8037 1.90801 16.005 3.20951 17.7923L1.85644 21.8257L6.02965 20.4917C7.74643 21.629 9.79436 22.2858 12.0024 22.2858C17.9888 22.2858 22.8569 17.415 22.8569 11.4287C22.8569 5.44232 17.9888 0.571533 12.0024 0.571533Z" fill="#4CAF50"/>
<path d="M18.0616 15.6109C17.8055 16.317 16.7891 16.9027 15.9783 17.0737C15.4237 17.1891 14.6992 17.2811 12.2604 16.2937C9.14088 15.0317 7.13196 11.9362 6.97539 11.7354C6.82545 11.5346 5.71484 10.0963 5.71484 8.60885C5.71484 7.12138 6.48842 6.39707 6.80024 6.0861C7.05633 5.83085 7.47961 5.71423 7.88564 5.71423C8.017 5.71423 8.13509 5.72071 8.24125 5.72589C8.55306 5.73885 8.70964 5.75699 8.91531 6.2377C9.1714 6.84021 9.79503 8.32769 9.86934 8.48058C9.94497 8.63347 10.0206 8.84079 9.91446 9.04162C9.81494 9.24894 9.72736 9.34093 9.57079 9.51715C9.41422 9.69337 9.2656 9.82812 9.10903 10.0173C8.96573 10.1818 8.80385 10.3581 8.9843 10.6626C9.16476 10.9606 9.7884 11.9544 10.7066 12.7525C11.8915 13.7826 12.8522 14.1117 13.1959 14.2517C13.4519 14.3553 13.7571 14.3307 13.9442 14.1364C14.1817 13.8863 14.475 13.4717 14.7735 13.0635C14.9858 12.7707 15.2539 12.7344 15.5352 12.8381C15.8218 12.9352 17.3384 13.6673 17.6502 13.8189C17.9621 13.9718 18.1677 14.0444 18.2434 14.1726C18.3177 14.3009 18.3177 14.9034 18.0616 15.6109Z" fill="#FAFAFA"/>
</svg>
