<?xml version="1.0" encoding="utf-8"?><svg viewBox="0 0 1485 228" xmlns="http://www.w3.org/2000/svg" xmlns:xlink="http://www.w3.org/1999/xlink"><style>:root>svg{display:none}:root>svg:target{display:block}</style><svg fill="none" viewBox="0 0 35 35" id="icon-cart" xmlns="http://www.w3.org/2000/svg"><g opacity=".5" fill="currentColor"><path d="M14.583 19.323a1.093 1.093 0 1 0 0 2.188h5.834a1.093 1.093 0 1 0 0-2.188h-5.834Z"/><path fill-rule="evenodd" clip-rule="evenodd" d="M21.386 3.398a1.094 1.094 0 0 1 1.468.488l2.643 5.288c.625.032 1.192.08 1.707.155 1.54.22 2.814.696 3.72 1.816.906 1.121 1.104 2.466.997 4.017-.102 1.504-.51 3.401-1.017 5.77l-.658 3.074c-.343 1.6-.621 2.896-.971 3.908-.365 1.057-.846 1.925-1.666 2.588-.82.664-1.77.951-2.879 1.087-1.064.13-2.391.13-4.025.13h-6.41c-1.637 0-2.962 0-4.027-.13-1.108-.136-2.06-.423-2.879-1.086-.82-.664-1.3-1.532-1.665-2.588-.35-1.013-.627-2.31-.971-3.908l-.658-3.073c-.508-2.37-.914-4.268-1.018-5.772-.106-1.551.092-2.896.998-4.017.904-1.12 2.178-1.596 3.718-1.816A19.378 19.378 0 0 1 9.5 9.174l2.648-5.288a1.094 1.094 0 0 1 1.957.978l-2.13 4.254c.532-.003 1.09-.003 1.676-.003h7.698c.586 0 1.144 0 1.675.003l-2.128-4.254a1.094 1.094 0 0 1 .489-1.468l.001.002ZM8.36 11.46l-.588 1.175a1.094 1.094 0 1 0 1.958.977l1.147-2.295c.832-.015 1.78-.016 2.864-.016h7.52c1.085 0 2.032 0 2.864.014l1.147 2.297a1.094 1.094 0 0 0 1.957-.977l-.587-1.175.254.033c1.289.185 1.92.522 2.329 1.025.4.496.597 1.171.519 2.428H5.257c-.078-1.257.118-1.932.52-2.428.408-.503 1.04-.84 2.328-1.025l.254-.033Zm-2.106 9.102c-.25-1.138-.484-2.28-.701-3.427h23.896a120.739 120.739 0 0 1-.703 3.427l-.624 2.917c-.362 1.685-.612 2.85-.914 3.722-.292.846-.59 1.292-.973 1.601-.382.31-.882.508-1.768.616-.917.112-2.11.113-3.832.113h-6.27c-1.72 0-2.913-.001-3.83-.113-.887-.108-1.386-.307-1.768-.616-.384-.31-.682-.757-.973-1.601-.302-.872-.554-2.037-.914-3.722l-.626-2.916Z"/></g></svg><svg fill="none" viewBox="0 0 17 17" id="icon-cross" xmlns="http://www.w3.org/2000/svg"><path d="m1.208 1.208 14.584 14.584m-14.584 0L15.792 1.208" stroke="currentColor" stroke-width="1.5" stroke-linecap="round" stroke-linejoin="round"/></svg><svg fill="none" viewBox="0 0 37 23" id="icon-up" xmlns="http://www.w3.org/2000/svg"><path d="m4.395 21.933 13.943-14.97 14.038 15.072c.22.238.483.428.772.557a2.23 2.23 0 0 0 1.823 0 2.37 2.37 0 0 0 .772-.557 2.59 2.59 0 0 0 .52-.829 2.71 2.71 0 0 0 0-1.958 2.564 2.564 0 0 0-.52-.829L20.021 1.541a2.369 2.369 0 0 0-.771-.558 2.231 2.231 0 0 0-1.824 0 2.37 2.37 0 0 0-.772.558L15.09 3.348 1.146 18.318a2.564 2.564 0 0 0-.52.828 2.71 2.71 0 0 0 0 1.958c.121.31.298.592.52.829.44.444 1.02.69 1.624.69.604 0 1.185-.246 1.625-.69Z" fill="currentColor"/></svg><svg fill="none" viewBox="0 0 156 156" id="instagram-big" xmlns="http://www.w3.org/2000/svg"><path d="M84.682 13.007c4.743-.019 9.486.029 14.228.143l1.261.045c1.456.052 2.893.117 4.628.195 6.916.325 11.635 1.417 15.776 3.023 4.29 1.65 7.904 3.886 11.518 7.5a31.899 31.899 0 0 1 7.494 11.512c1.606 4.14 2.698 8.866 3.023 15.782.078 1.729.143 3.172.195 4.628l.039 1.261c.115 4.74.165 9.48.149 14.222l.007 4.849v8.515a511.29 511.29 0 0 1-.15 14.228l-.039 1.262c-.052 1.456-.117 2.892-.195 4.628-.325 6.916-1.43 11.635-3.029 15.775a31.745 31.745 0 0 1-7.494 11.518 31.964 31.964 0 0 1-11.518 7.495c-4.141 1.605-8.86 2.697-15.776 3.022-1.735.078-3.172.143-4.628.195l-1.26.039c-4.743.116-9.486.165-14.23.15l-4.848.006h-8.509c-4.743.016-9.486-.034-14.228-.149l-1.261-.039a397.046 397.046 0 0 1-4.628-.195c-6.916-.325-11.635-1.43-15.782-3.029a31.801 31.801 0 0 1-11.512-7.495 31.877 31.877 0 0 1-7.5-11.518c-1.606-4.14-2.698-8.859-3.023-15.775a490.31 490.31 0 0 1-.195-4.628l-.033-1.261c-.12-4.742-.174-9.486-.162-14.229V71.318c-.018-4.741.03-9.482.143-14.222l.045-1.261c.052-1.456.117-2.899.195-4.628.325-6.922 1.417-11.635 3.023-15.782A31.722 31.722 0 0 1 23.92 23.92a31.833 31.833 0 0 1 11.505-7.508c4.147-1.605 8.86-2.697 15.782-3.022l4.628-.195 1.26-.033c4.74-.12 9.482-.173 14.223-.162l13.364.007ZM78 45.507a32.5 32.5 0 1 0 0 64.993 32.5 32.5 0 0 0 22.981-55.48A32.494 32.494 0 0 0 78 45.505Zm0 13a19.5 19.5 0 1 1 .006 38.993 19.5 19.5 0 1 1 0-39l-.006.007Zm34.125-22.75a8.125 8.125 0 0 0 0 16.236 8.125 8.125 0 0 0 0-16.25v.014Z" fill="#fff" fill-opacity=".5"/></svg><svg fill="none" viewBox="0 0 166 36" id="logo" xmlns="http://www.w3.org/2000/svg"><path d="M61.456 11.336v9.9h7.272V23h-9.324V11.336h2.052ZM80.042 23h-1.998v-8.964h1.998V23Zm-1.89-4.266.018.576c-.024.156-.078.39-.162.702a4.94 4.94 0 0 1-.378 1.026c-.168.36-.396.708-.684 1.044a3.383 3.383 0 0 1-1.044.81c-.42.204-.93.306-1.53.306-.432 0-.87-.06-1.314-.18a3.374 3.374 0 0 1-1.188-.558c-.348-.264-.63-.624-.846-1.08-.216-.456-.324-1.032-.324-1.728v-5.616h1.998v5.238c0 .564.09 1.008.27 1.332.192.312.456.534.792.666s.726.198 1.17.198c.636 0 1.176-.144 1.62-.432a3.449 3.449 0 0 0 1.062-1.062c.276-.432.456-.846.54-1.242Zm13.745.792c-.072.768-.318 1.428-.738 1.98s-.984.972-1.692 1.26c-.696.288-1.5.432-2.412.432-.984 0-1.878-.18-2.682-.54a4.44 4.44 0 0 1-1.89-1.584c-.468-.696-.702-1.542-.702-2.538 0-.996.234-1.842.702-2.538a4.566 4.566 0 0 1 1.89-1.602c.804-.372 1.698-.558 2.682-.558.912 0 1.716.15 2.412.45.696.288 1.254.702 1.674 1.242.42.54.666 1.194.738 1.962h-1.836a2.666 2.666 0 0 0-1.116-1.476c-.528-.36-1.152-.54-1.872-.54-.588 0-1.128.12-1.62.36-.492.228-.888.57-1.188 1.026-.288.444-.432 1.002-.432 1.674 0 .66.144 1.218.432 1.674.3.456.696.798 1.188 1.026a3.986 3.986 0 0 0 1.62.324c.792 0 1.44-.174 1.944-.522.516-.36.87-.864 1.062-1.512h1.836Zm1.94-9.09h1.998V23h-1.998V10.436Zm8.982 3.6-5.022 4.608.054-1.26L103.197 23h-2.556l-4.752-5.022 4.158-3.942h2.772Zm.839 0h2.142l3.618 8.604-1.728.36-4.032-8.964Zm9.99 0-5.76 12.564h-2.106l2.466-4.914 3.258-7.65h2.142ZM119.521 23V11.336h5.94c1.428 0 2.52.27 3.276.81.768.528 1.152 1.296 1.152 2.304 0 .648-.15 1.164-.45 1.548-.288.372-.702.654-1.242.846-.54.18-1.176.294-1.908.342l.072-.108c.528.012 1.026.06 1.494.144.48.072.9.204 1.26.396.372.192.66.462.864.81.216.336.324.774.324 1.314 0 .72-.18 1.314-.54 1.782-.36.468-.858.828-1.494 1.08-.636.24-1.368.372-2.196.396h-6.552Zm2.052-1.746h4.194c.78 0 1.386-.132 1.818-.396.432-.276.648-.702.648-1.278 0-.456-.132-.786-.396-.99-.264-.216-.606-.354-1.026-.414a9.043 9.043 0 0 0-1.314-.09h-3.924v3.168Zm0-4.878h3.762c.78 0 1.38-.132 1.8-.396.432-.276.648-.708.648-1.296 0-.576-.216-.984-.648-1.224-.42-.252-.972-.378-1.656-.378h-3.906v3.294Zm14.594 6.822a4.411 4.411 0 0 1-2.25-.594 4.512 4.512 0 0 1-1.62-1.638c-.396-.708-.594-1.518-.594-2.43 0-.936.204-1.752.612-2.448.408-.708.96-1.26 1.656-1.656.696-.396 1.476-.594 2.34-.594.96 0 1.722.21 2.286.63.564.42.966.984 1.206 1.692s.36 1.5.36 2.376c0 .492-.072 1.014-.216 1.566a5.058 5.058 0 0 1-.684 1.512c-.3.468-.708.852-1.224 1.152-.504.288-1.128.432-1.872.432Zm.612-1.656c.672 0 1.242-.126 1.71-.378.48-.264.84-.624 1.08-1.08.252-.456.378-.972.378-1.548 0-.636-.126-1.176-.378-1.62a2.52 2.52 0 0 0-1.08-1.044c-.468-.252-1.038-.378-1.71-.378-.96 0-1.704.282-2.232.846-.528.564-.792 1.296-.792 2.196 0 .588.126 1.11.378 1.566.264.456.624.81 1.08 1.062.456.252.978.378 1.566.378Zm3.168-7.506h2.016V23h-1.872l-.036-.342a27.482 27.482 0 0 1-.072-.828 13.42 13.42 0 0 1-.036-.954v-6.84Zm10.138 9.162c-.744 0-1.374-.144-1.89-.432a3.756 3.756 0 0 1-1.224-1.152 5.329 5.329 0 0 1-.666-1.512 6.743 6.743 0 0 1-.198-1.566c0-.66.066-1.272.198-1.836a4.127 4.127 0 0 1 .648-1.476c.312-.432.72-.768 1.224-1.008.516-.252 1.152-.378 1.908-.378.864 0 1.626.198 2.286.594a4.21 4.21 0 0 1 1.584 1.656c.396.696.594 1.512.594 2.448 0 .912-.198 1.722-.594 2.43a4.375 4.375 0 0 1-1.602 1.638c-.672.396-1.428.594-2.268.594Zm-.612-1.656c.612 0 1.14-.126 1.584-.378a2.66 2.66 0 0 0 1.062-1.062c.252-.456.378-.978.378-1.566 0-.9-.264-1.632-.792-2.196-.528-.576-1.272-.864-2.232-.864-.66 0-1.23.126-1.71.378a2.631 2.631 0 0 0-1.08 1.062c-.24.444-.36.984-.36 1.62 0 .576.12 1.092.36 1.548a2.75 2.75 0 0 0 1.08 1.08c.468.252 1.038.378 1.71.378Zm-3.15-11.106v10.44c0 .324-.018.69-.054 1.098-.036.408-.072.75-.108 1.026h-1.854V10.436h2.016Zm8.856 3.6h2.142l3.618 8.604-1.728.36-4.032-8.964Zm9.99 0-5.76 12.564h-2.106l2.466-4.914 3.258-7.65h2.142Z" fill="#3C3C3C"/><path d="M39.994 21.127c.64-1.91-1.095-2.083-.972-3.685.103-1.345 1.873-.741 2.557-.61m-4.12-10.805c-2.117-1.996-4.46-3.298-5.85-2.257-1.388 1.042-.693 2.604 1.216 2.604 1.909 0 3.905-1.302 3.731-2.517-.24-1.692-3.348-4.196-9.285-3.384-2.914.399-7.621 2.336-9.199 3.818" stroke="#010101" stroke-width=".452" stroke-miterlimit="10"/><path d="M29.453 8.434C24.852 2.549 15.06 2.516 7.584 8.361c-7.477 5.846-9.81 15.355-5.207 21.24 4.603 5.886 14.392 5.917 21.869.073 7.477-5.843 9.808-15.356 5.207-21.24Zm-15.567 9.237c-2.05 1.602-4.735 1.593-5.997-.021-1.261-1.614-.62-4.214 1.429-5.818 2.05-1.603 4.735-1.593 5.996.021 1.262 1.614.622 4.22-1.428 5.818Z" fill="#DEA9BA"/><path d="M15.84 12.907c.242 1.145.01 2.706-1.024 3.512a3.244 3.244 0 0 1-5.225-1.645 3.245 3.245 0 0 1 1.234-3.467 3.188 3.188 0 0 1 2.317-.636c-1.215-.158-2.625.23-3.819 1.161-2.055 1.604-2.693 4.21-1.433 5.823 1.26 1.613 3.946 1.623 5.996.021 1.646-1.288 2.381-3.221 1.954-4.77Z" fill="#B98E9C"/><path d="M37.026 18.143c-5.479-4.061-12.277-4.176-15.183-.257-2.905 3.919-.819 10.393 4.66 14.454 5.48 4.061 12.278 4.178 15.185.257 2.907-3.92.82-10.391-4.662-14.454Zm-.28 6c-.773 1.041-2.582 1.012-4.04-.068-1.457-1.08-2.013-2.803-1.24-3.846.772-1.043 2.582-1.012 4.04.07 1.458 1.08 2.013 2.8 1.24 3.844Z" fill="#F0D663"/><path d="M33.918 23.745c-1.27-.942-1.852-2.617-.888-3.802.146-.172.312-.325.494-.457-.85-.094-1.619.153-2.058.743-.772 1.041-.217 2.765 1.24 3.846 1.459 1.081 3.267 1.11 4.04.068-.025.04.027-.038 0 0-1.028.557-1.965.241-2.828-.398Z" fill="#CDB856"/><path d="M13.82 10.453c-1.215 3.644 1.128 5.12 3.732 5.293 2.603.174 3.905-1.475 6.682-.781 3.252.812 3.905 4.252 5.987 6.161 2.083 1.91 5.573 1.293 6.856 1.128" stroke="#010101" stroke-width=".452" stroke-miterlimit="10"/><path d="m14.412 10.284-1.169-.33-.189.667 1.17.33.188-.667Z" fill="#DEA9BA"/><path d="M36.846 21.93c0-2.083 1.099-.347 1.099.151 0 .52-.774.509-.892.509a3.825 3.825 0 0 0-.207-.66Z" fill="#F0D663"/></svg><svg fill="none" viewBox="0 0 166 36" id="logo-light" xmlns="http://www.w3.org/2000/svg"><path d="M61.456 11.336v9.9h7.272V23h-9.324V11.336h2.052ZM80.042 23h-1.998v-8.964h1.998V23Zm-1.89-4.266.018.576c-.024.156-.078.39-.162.702a4.94 4.94 0 0 1-.378 1.026c-.168.36-.396.708-.684 1.044a3.383 3.383 0 0 1-1.044.81c-.42.204-.93.306-1.53.306-.432 0-.87-.06-1.314-.18a3.374 3.374 0 0 1-1.188-.558c-.348-.264-.63-.624-.846-1.08-.216-.456-.324-1.032-.324-1.728v-5.616h1.998v5.238c0 .564.09 1.008.27 1.332.192.312.456.534.792.666s.726.198 1.17.198c.636 0 1.176-.144 1.62-.432a3.449 3.449 0 0 0 1.062-1.062c.276-.432.456-.846.54-1.242Zm13.745.792c-.072.768-.318 1.428-.738 1.98s-.984.972-1.692 1.26c-.696.288-1.5.432-2.412.432-.984 0-1.878-.18-2.682-.54a4.44 4.44 0 0 1-1.89-1.584c-.468-.696-.702-1.542-.702-2.538 0-.996.234-1.842.702-2.538a4.566 4.566 0 0 1 1.89-1.602c.804-.372 1.698-.558 2.682-.558.912 0 1.716.15 2.412.45.696.288 1.254.702 1.674 1.242.42.54.666 1.194.738 1.962h-1.836a2.666 2.666 0 0 0-1.116-1.476c-.528-.36-1.152-.54-1.872-.54-.588 0-1.128.12-1.62.36-.492.228-.888.57-1.188 1.026-.288.444-.432 1.002-.432 1.674 0 .66.144 1.218.432 1.674.3.456.696.798 1.188 1.026a3.986 3.986 0 0 0 1.62.324c.792 0 1.44-.174 1.944-.522.516-.36.87-.864 1.062-1.512h1.836Zm1.94-9.09h1.998V23h-1.998V10.436Zm8.982 3.6-5.022 4.608.054-1.26L103.197 23h-2.556l-4.752-5.022 4.158-3.942h2.772Zm.839 0h2.142l3.618 8.604-1.728.36-4.032-8.964Zm9.99 0-5.76 12.564h-2.106l2.466-4.914 3.258-7.65h2.142ZM119.521 23V11.336h5.94c1.428 0 2.52.27 3.276.81.768.528 1.152 1.296 1.152 2.304 0 .648-.15 1.164-.45 1.548-.288.372-.702.654-1.242.846-.54.18-1.176.294-1.908.342l.072-.108c.528.012 1.026.06 1.494.144.48.072.9.204 1.26.396.372.192.66.462.864.81.216.336.324.774.324 1.314 0 .72-.18 1.314-.54 1.782-.36.468-.858.828-1.494 1.08-.636.24-1.368.372-2.196.396h-6.552Zm2.052-1.746h4.194c.78 0 1.386-.132 1.818-.396.432-.276.648-.702.648-1.278 0-.456-.132-.786-.396-.99-.264-.216-.606-.354-1.026-.414a9.043 9.043 0 0 0-1.314-.09h-3.924v3.168Zm0-4.878h3.762c.78 0 1.38-.132 1.8-.396.432-.276.648-.708.648-1.296 0-.576-.216-.984-.648-1.224-.42-.252-.972-.378-1.656-.378h-3.906v3.294Zm14.594 6.822a4.411 4.411 0 0 1-2.25-.594 4.512 4.512 0 0 1-1.62-1.638c-.396-.708-.594-1.518-.594-2.43 0-.936.204-1.752.612-2.448.408-.708.96-1.26 1.656-1.656.696-.396 1.476-.594 2.34-.594.96 0 1.722.21 2.286.63.564.42.966.984 1.206 1.692s.36 1.5.36 2.376c0 .492-.072 1.014-.216 1.566a5.058 5.058 0 0 1-.684 1.512c-.3.468-.708.852-1.224 1.152-.504.288-1.128.432-1.872.432Zm.612-1.656c.672 0 1.242-.126 1.71-.378.48-.264.84-.624 1.08-1.08.252-.456.378-.972.378-1.548 0-.636-.126-1.176-.378-1.62a2.52 2.52 0 0 0-1.08-1.044c-.468-.252-1.038-.378-1.71-.378-.96 0-1.704.282-2.232.846-.528.564-.792 1.296-.792 2.196 0 .588.126 1.11.378 1.566.264.456.624.81 1.08 1.062.456.252.978.378 1.566.378Zm3.168-7.506h2.016V23h-1.872l-.036-.342a27.482 27.482 0 0 1-.072-.828 13.42 13.42 0 0 1-.036-.954v-6.84Zm10.138 9.162c-.744 0-1.374-.144-1.89-.432a3.756 3.756 0 0 1-1.224-1.152 5.329 5.329 0 0 1-.666-1.512 6.743 6.743 0 0 1-.198-1.566c0-.66.066-1.272.198-1.836a4.127 4.127 0 0 1 .648-1.476c.312-.432.72-.768 1.224-1.008.516-.252 1.152-.378 1.908-.378.864 0 1.626.198 2.286.594a4.21 4.21 0 0 1 1.584 1.656c.396.696.594 1.512.594 2.448 0 .912-.198 1.722-.594 2.43a4.375 4.375 0 0 1-1.602 1.638c-.672.396-1.428.594-2.268.594Zm-.612-1.656c.612 0 1.14-.126 1.584-.378a2.66 2.66 0 0 0 1.062-1.062c.252-.456.378-.978.378-1.566 0-.9-.264-1.632-.792-2.196-.528-.576-1.272-.864-2.232-.864-.66 0-1.23.126-1.71.378a2.631 2.631 0 0 0-1.08 1.062c-.24.444-.36.984-.36 1.62 0 .576.12 1.092.36 1.548a2.75 2.75 0 0 0 1.08 1.08c.468.252 1.038.378 1.71.378Zm-3.15-11.106v10.44c0 .324-.018.69-.054 1.098-.036.408-.072.75-.108 1.026h-1.854V10.436h2.016Zm8.856 3.6h2.142l3.618 8.604-1.728.36-4.032-8.964Zm9.99 0-5.76 12.564h-2.106l2.466-4.914 3.258-7.65h2.142Z" fill="#FFF"/><path d="M39.994 21.127c.64-1.91-1.095-2.083-.972-3.685.103-1.345 1.873-.741 2.557-.61m-4.12-10.805c-2.117-1.996-4.46-3.298-5.85-2.257-1.388 1.042-.693 2.604 1.216 2.604 1.909 0 3.905-1.302 3.731-2.517-.24-1.692-3.348-4.196-9.285-3.384-2.914.399-7.621 2.336-9.199 3.818" stroke="#010101" stroke-width=".452" stroke-miterlimit="10"/><path d="M29.453 8.434C24.852 2.549 15.06 2.516 7.584 8.361c-7.477 5.846-9.81 15.355-5.207 21.24 4.603 5.886 14.392 5.917 21.869.073 7.477-5.843 9.808-15.356 5.207-21.24Zm-15.567 9.237c-2.05 1.602-4.735 1.593-5.997-.021-1.261-1.614-.62-4.214 1.429-5.818 2.05-1.603 4.735-1.593 5.996.021 1.262 1.614.622 4.22-1.428 5.818Z" fill="#DEA9BA"/><path d="M15.84 12.907c.242 1.145.01 2.706-1.024 3.512a3.244 3.244 0 0 1-5.225-1.645 3.245 3.245 0 0 1 1.234-3.467 3.188 3.188 0 0 1 2.317-.636c-1.215-.158-2.625.23-3.819 1.161-2.055 1.604-2.693 4.21-1.433 5.823 1.26 1.613 3.946 1.623 5.996.021 1.646-1.288 2.381-3.221 1.954-4.77Z" fill="#B98E9C"/><path d="M37.026 18.143c-5.479-4.061-12.277-4.176-15.183-.257-2.905 3.919-.819 10.393 4.66 14.454 5.48 4.061 12.278 4.178 15.185.257 2.907-3.92.82-10.391-4.662-14.454Zm-.28 6c-.773 1.041-2.582 1.012-4.04-.068-1.457-1.08-2.013-2.803-1.24-3.846.772-1.043 2.582-1.012 4.04.07 1.458 1.08 2.013 2.8 1.24 3.844Z" fill="#F0D663"/><path d="M33.918 23.745c-1.27-.942-1.852-2.617-.888-3.802.146-.172.312-.325.494-.457-.85-.094-1.619.153-2.058.743-.772 1.041-.217 2.765 1.24 3.846 1.459 1.081 3.267 1.11 4.04.068-.025.04.027-.038 0 0-1.028.557-1.965.241-2.828-.398Z" fill="#CDB856"/><path d="M13.82 10.453c-1.215 3.644 1.128 5.12 3.732 5.293 2.603.174 3.905-1.475 6.682-.781 3.252.812 3.905 4.252 5.987 6.161 2.083 1.91 5.573 1.293 6.856 1.128" stroke="#010101" stroke-width=".452" stroke-miterlimit="10"/><path d="m14.412 10.284-1.169-.33-.189.667 1.17.33.188-.667Z" fill="#DEA9BA"/><path d="M36.846 21.93c0-2.083 1.099-.347 1.099.151 0 .52-.774.509-.892.509a3.825 3.825 0 0 0-.207-.66Z" fill="#F0D663"/></svg><svg fill="none" viewBox="0 0 1485 228" id="wave" xmlns="http://www.w3.org/2000/svg"><mask id="ga" style="mask-type:alpha" maskUnits="userSpaceOnUse" x="0" y="0" width="1485" height="228"><path fill="#fff" d="M0 0h1485v228H0z"/></mask><g mask="url(#ga)" stroke="#F8F6F2" stroke-width="122"><path d="M-193 151.199C-128.132 97.805 43.712 28.797 6.156 77.657-43.315 142.02-116 166-38.5 164.5L86.957 97.805c32.244-16.286 92.409-41.707 75.111-13.096-21.623 35.764-91.044 79.587-45.522 79.587 36.417 0 56.143-8.731 61.454-13.097m0 0c64.868-53.394 236.712-122.402 199.156-73.542-49.471 64.364-121.769 99.735-43.245 86.639l124.046-66.49c32.244-16.287 92.409-41.708 75.11-13.097-21.622 35.764-91.042 79.587-45.521 79.587 36.417 0 56.143-8.731 61.454-13.097m0 0c64.868-53.394 236.712-122.402 199.156-73.542-49.471 64.364-121.769 99.735-43.245 86.639l124.046-66.49c32.244-16.287 92.409-41.708 75.11-13.097-21.622 35.764-91.042 79.587-45.521 79.587 36.417 0 56.143-8.731 61.454-13.097m0 0c64.868-53.394 236.71-122.402 199.16-73.542-49.48 64.364-121.773 99.735-43.25 86.639l124.05-66.49c32.24-16.287 92.41-41.708 75.11-13.097-21.63 35.764-91.05 79.587-45.52 79.587 36.41 0 56.14-8.731 61.45-13.097m0 0c64.87-53.394 236.71-122.402 199.16-73.542-49.48 64.364-121.77 99.735-43.25 86.639l124.05-66.49c32.24-16.287 92.41-41.708 75.11-13.097-21.63 35.764-91.05 79.587-45.52 79.587 36.41 0 56.14-8.731 61.45-13.097"/></g></svg></svg>