<svg width="1920" height="303" fill="none" xmlns="http://www.w3.org/2000/svg"><path d="M40 152.935c9.178 0 77.211-58.768 85.676-61.295 40.425-12.071-9.058-9.801 37.775-12.704 2.612-16.768 64.488-17.827 64.488-11.094 0 5.982-6.888 13.3-9.944 18.378-3.968 6.593-8.035 13.122-12.154 19.648-13.14 20.813-24.894 41.97-39.778 61.992-8.071 10.857-19.156 22.595-23.706 35.062-3.228 8.846 7.037.284 11.853-2.541 43.315-25.405 87.613-45.858 134.702-65.973.263-.112 99.954-45.136 102.156-37.179 3.035 10.965-18.169 32.536-24.409 40.143-19.173 23.372-41.989 44.003-58.863 68.768-9.319 13.677 8.975 3.29 16.574-.339 47.84-22.841 93.467-48.56 136.008-77.914 27.577-19.029 57.172-45.688 92.513-54.201 8.158-1.966 20.574-3.391 29.13-1.694 24.251 4.81-15.148 58.398-18.583 64.364-8.06 13.999-17.495 28.142-21.898 43.361-4.827 16.687 17.26-2.866 22.902-6.606C629.274 130.135 695.498 76.762 778.9 62.168c17.632-3.085 27.313-.851 24.409 16.43-3.982 23.7-22.719 46.527-35.458 67.497-6.033 9.931-11.15 18.827-11.15 30.065 0 3.758 3.673 4.055 7.634 3.896 19.905-.8 41.573-21.734 54.443-32.86 19.382-16.755 38.66-37.431 62.479-49.882 7.125-3.724 12.823-5.674 20.994-5.674 11.727 0 16.919 1.306 11.753 12.195M869 152.935c9.178 0 77.211-58.768 85.676-61.295 40.425-12.071-9.058-9.801 37.775-12.704 2.612-16.768 64.489-17.827 64.489-11.094 0 5.982-6.89 13.3-9.95 18.378-3.96 6.593-8.03 13.122-12.15 19.648-13.14 20.813-24.89 41.97-39.777 61.992-8.071 10.857-19.156 22.595-23.706 35.062-3.228 8.846 7.037.284 11.853-2.541 43.32-25.405 87.61-45.858 134.7-65.973.26-.112 99.96-45.136 102.16-37.179 3.03 10.965-18.17 32.536-24.41 40.143-19.17 23.372-41.99 44.003-58.86 68.768-9.32 13.677 8.97 3.29 16.57-.339 47.84-22.841 93.47-48.56 136.01-77.914 27.57-19.029 57.17-45.688 92.51-54.201 8.16-1.966 20.58-3.391 29.13-1.694 24.25 4.81-15.15 58.398-18.58 64.364-8.06 13.999-17.5 28.142-21.9 43.361-4.83 16.687 17.26-2.866 22.9-6.606 64.83-42.976 131.06-96.349 214.46-110.943 17.63-3.085 27.31-.851 24.41 16.43-3.98 23.7-22.72 46.527-35.46 67.497-6.03 9.931-11.15 18.827-11.15 30.065 0 3.758 3.67 4.055 7.64 3.896 19.9-.8 41.57-21.734 54.44-32.86 19.38-16.755 38.66-37.431 62.48-49.882 7.12-3.724 12.82-5.674 20.99-5.674 11.73 0 16.92 1.306 11.75 12.195M1745 181.935c9.18 0 77.21-58.768 85.68-61.295 40.42-12.071-9.06-9.801 37.77-12.704 2.61-16.768 64.49-17.827 64.49-11.094 0 5.982-6.89 13.3-9.95 18.378-3.96 6.592-8.03 13.122-12.15 19.648-13.14 20.813-24.89 41.97-39.78 61.992-8.07 10.857-19.15 22.595-23.7 35.062-3.23 8.846 7.03.284 11.85-2.541 43.32-25.405 87.61-45.858 134.7-65.973.26-.112 99.96-45.136 102.16-37.179 3.03 10.965-18.17 32.536-24.41 40.143-19.17 23.372-41.99 44.003-58.86 68.768-9.32 13.677 8.97 3.29 16.57-.339 47.84-22.841 93.47-48.56 136.01-77.914 27.57-19.029 57.17-45.688 92.51-54.201 8.16-1.966 20.58-3.391 29.13-1.694 24.25 4.811-15.15 58.398-18.58 64.364-8.06 13.999-17.5 28.142-21.9 43.361-4.83 16.687 17.26-2.866 22.9-6.606 64.83-42.976 131.06-96.349 214.46-110.943 17.63-3.086 27.31-.851 24.41 16.43-3.98 23.7-22.72 46.527-35.46 67.497-6.03 9.931-11.15 18.827-11.15 30.065 0 3.758 3.67 4.055 7.64 3.896 19.9-.8 41.57-21.734 54.44-32.86 19.38-16.755 38.66-37.431 62.48-49.882 7.12-3.724 12.82-5.674 20.99-5.674 11.73 0 16.92 1.306 11.75 12.195" stroke="#F8F6F2" stroke-width="122" stroke-linecap="round"/></svg>